<mxfile host="app.diagrams.net" modified="2024-02-25T10:52:16.386Z" agent="Mozilla/5.0 (X11; Linux x86_64; rv:123.0) Gecko/20100101 Firefox/123.0" etag="lSGEiIbvjImWdHYkop-X" version="23.1.6" type="device">
  <diagram name="ContextDiagram" id="OewGzzECru7EMb-YmK2W">
    <mxGraphModel dx="1697" dy="694" grid="1" gridSize="10" guides="1" tooltips="1" connect="1" arrows="1" fold="1" page="1" pageScale="1" pageWidth="827" pageHeight="1169" math="0" shadow="0">
      <root>
        <mxCell id="0" />
        <mxCell id="1" parent="0" />
        <mxCell id="AzP6F-gZwt-fWo5-Fft6-14" value="" style="strokeWidth=2;html=1;shape=mxgraph.flowchart.database;whiteSpace=wrap;" vertex="1" parent="1">
          <mxGeometry x="810" y="420" width="40" height="40" as="geometry" />
        </mxCell>
        <mxCell id="AzP6F-gZwt-fWo5-Fft6-4" value="Secured by Azure Front Door &amp;amp; SSO" style="rounded=1;whiteSpace=wrap;html=1;fillColor=none;dashed=1;dashPattern=8 8;verticalAlign=top;" vertex="1" parent="1">
          <mxGeometry x="390" y="190" width="300" height="200" as="geometry" />
        </mxCell>
        <object placeholders="1" c4Name="Messaging Ecosystem" c4Type="Software Cloud System" c4Description="Backend messaging system" label="&lt;font style=&quot;font-size: 16px&quot;&gt;&lt;b&gt;%c4Name%&lt;/b&gt;&lt;/font&gt;&lt;div&gt;[%c4Type%]&lt;/div&gt;&lt;br&gt;&lt;div&gt;&lt;font style=&quot;font-size: 11px&quot;&gt;&lt;font color=&quot;#cccccc&quot;&gt;%c4Description%&lt;/font&gt;&lt;/div&gt;" id="PGkPKVcrgzVjSJd_lX84-1">
          <mxCell style="rounded=1;whiteSpace=wrap;html=1;labelBackgroundColor=none;fillColor=#1061B0;fontColor=#ffffff;align=center;arcSize=10;strokeColor=#0D5091;metaEdit=1;resizable=0;points=[[0.25,0,0],[0.5,0,0],[0.75,0,0],[1,0.25,0],[1,0.5,0],[1,0.75,0],[0.75,1,0],[0.5,1,0],[0.25,1,0],[0,0.75,0],[0,0.5,0],[0,0.25,0]];" parent="1" vertex="1">
            <mxGeometry x="420" y="220" width="240" height="120" as="geometry" />
          </mxCell>
        </object>
        <object placeholders="1" c4Name="Admin Dashboard" c4Type="Azure Power App" c4Description="Admin system to issue&lt;/br&gt;messages and goals" label="&lt;font style=&quot;font-size: 16px&quot;&gt;&lt;b&gt;%c4Name%&lt;/b&gt;&lt;/font&gt;&lt;div&gt;[%c4Type%]&lt;/div&gt;&lt;br&gt;&lt;div&gt;&lt;font style=&quot;font-size: 11px&quot;&gt;&lt;font color=&quot;#cccccc&quot;&gt;%c4Description%&lt;/font&gt;&lt;/div&gt;" id="PGkPKVcrgzVjSJd_lX84-2">
          <mxCell style="rounded=1;whiteSpace=wrap;html=1;labelBackgroundColor=none;fillColor=#1061B0;fontColor=#ffffff;align=center;arcSize=10;strokeColor=#0D5091;metaEdit=1;resizable=0;points=[[0.25,0,0],[0.5,0,0],[0.75,0,0],[1,0.25,0],[1,0.5,0],[1,0.75,0],[0.75,1,0],[0.5,1,0],[0.25,1,0],[0,0.75,0],[0,0.5,0],[0,0.25,0]];" parent="1" vertex="1">
            <mxGeometry x="241" y="440" width="240" height="120" as="geometry" />
          </mxCell>
        </object>
        <object placeholders="1" c4Name="User Mobile App" c4Type="Mobile App" c4Description="App to receive messages&lt;/br&gt; and monitor tasks" label="&lt;font style=&quot;font-size: 16px&quot;&gt;&lt;b&gt;%c4Name%&lt;/b&gt;&lt;/font&gt;&lt;div&gt;[%c4Type%]&lt;/div&gt;&lt;br&gt;&lt;div&gt;&lt;font style=&quot;font-size: 11px&quot;&gt;&lt;font color=&quot;#cccccc&quot;&gt;%c4Description%&lt;/font&gt;&lt;/div&gt;" id="PGkPKVcrgzVjSJd_lX84-3">
          <mxCell style="rounded=1;whiteSpace=wrap;html=1;labelBackgroundColor=none;fillColor=#1061B0;fontColor=#ffffff;align=center;arcSize=10;strokeColor=#0D5091;metaEdit=1;resizable=0;points=[[0.25,0,0],[0.5,0,0],[0.75,0,0],[1,0.25,0],[1,0.5,0],[1,0.75,0],[0.75,1,0],[0.5,1,0],[0.25,1,0],[0,0.75,0],[0,0.5,0],[0,0.25,0]];" parent="1" vertex="1">
            <mxGeometry x="600" y="440" width="240" height="120" as="geometry" />
          </mxCell>
        </object>
        <object placeholders="1" c4Name="Messaging System" c4Type="SystemScopeBoundary" c4Application="Software System" label="&lt;font style=&quot;font-size: 16px&quot;&gt;&lt;b&gt;&lt;div style=&quot;text-align: left&quot;&gt;%c4Name%&lt;/div&gt;&lt;/b&gt;&lt;/font&gt;&lt;div style=&quot;text-align: left&quot;&gt;[%c4Application%]&lt;/div&gt;" id="AzP6F-gZwt-fWo5-Fft6-1">
          <mxCell style="rounded=1;fontSize=11;whiteSpace=wrap;html=1;dashed=1;arcSize=20;fillColor=none;strokeColor=#666666;fontColor=#333333;labelBackgroundColor=none;align=left;verticalAlign=bottom;labelBorderColor=none;spacingTop=0;spacing=10;dashPattern=8 4;metaEdit=1;rotatable=0;perimeter=rectanglePerimeter;noLabel=0;labelPadding=0;allowArrows=0;connectable=0;expand=0;recursiveResize=0;editable=1;pointerEvents=0;absoluteArcSize=1;points=[[0.25,0,0],[0.5,0,0],[0.75,0,0],[1,0.25,0],[1,0.5,0],[1,0.75,0],[0.75,1,0],[0.5,1,0],[0.25,1,0],[0,0.75,0],[0,0.5,0],[0,0.25,0]];" vertex="1" parent="1">
            <mxGeometry x="220" y="170" width="640" height="460" as="geometry" />
          </mxCell>
        </object>
        <object placeholders="1" c4Name="Domain Store" c4Type="Software System" c4Description="ML generated messages" label="&lt;font style=&quot;font-size: 16px&quot;&gt;&lt;b&gt;%c4Name%&lt;/b&gt;&lt;/font&gt;&lt;div&gt;[%c4Type%]&lt;/div&gt;&lt;br&gt;&lt;div&gt;&lt;font style=&quot;font-size: 11px&quot;&gt;&lt;font color=&quot;#cccccc&quot;&gt;%c4Description%&lt;/font&gt;&lt;/div&gt;" id="AzP6F-gZwt-fWo5-Fft6-2">
          <mxCell style="rounded=1;whiteSpace=wrap;html=1;labelBackgroundColor=none;fillColor=#8C8496;fontColor=#ffffff;align=center;arcSize=10;strokeColor=#736782;metaEdit=1;resizable=0;points=[[0.25,0,0],[0.5,0,0],[0.75,0,0],[1,0.25,0],[1,0.5,0],[1,0.75,0],[0.75,1,0],[0.5,1,0],[0.25,1,0],[0,0.75,0],[0,0.5,0],[0,0.25,0]];" vertex="1" parent="1">
            <mxGeometry x="-80" y="280" width="240" height="120" as="geometry" />
          </mxCell>
        </object>
        <mxCell id="AzP6F-gZwt-fWo5-Fft6-5" value="" style="image;aspect=fixed;html=1;points=[];align=center;fontSize=12;image=img/lib/azure2/analytics/Event_Hubs.svg;" vertex="1" parent="1">
          <mxGeometry x="430" y="300" width="27" height="24.18" as="geometry" />
        </mxCell>
        <mxCell id="AzP6F-gZwt-fWo5-Fft6-6" value="" style="image;aspect=fixed;html=1;points=[];align=center;fontSize=12;image=img/lib/azure2/iot/Function_Apps.svg;" vertex="1" parent="1">
          <mxGeometry x="429" y="267.65000000000003" width="28" height="24.71" as="geometry" />
        </mxCell>
        <mxCell id="AzP6F-gZwt-fWo5-Fft6-7" value="" style="image;aspect=fixed;html=1;points=[];align=center;fontSize=12;image=img/lib/azure2/app_services/API_Management_Services.svg;" vertex="1" parent="1">
          <mxGeometry x="523" y="350" width="34" height="31.5" as="geometry" />
        </mxCell>
        <mxCell id="AzP6F-gZwt-fWo5-Fft6-8" value="" style="image;aspect=fixed;html=1;points=[];align=center;fontSize=12;image=img/lib/azure2/networking/Front_Doors.svg;" vertex="1" parent="1">
          <mxGeometry x="410" y="350" width="38" height="33.53" as="geometry" />
        </mxCell>
        <mxCell id="AzP6F-gZwt-fWo5-Fft6-9" value="" style="image;aspect=fixed;html=1;points=[];align=center;fontSize=12;image=img/lib/azure2/management_governance/Metrics.svg;" vertex="1" parent="1">
          <mxGeometry x="630" y="300" width="24.8" height="30.77" as="geometry" />
        </mxCell>
        <mxCell id="AzP6F-gZwt-fWo5-Fft6-10" value="" style="image;aspect=fixed;html=1;points=[];align=center;fontSize=12;image=img/lib/azure2/analytics/Power_BI_Embedded.svg;" vertex="1" parent="1">
          <mxGeometry x="440" y="510" width="31" height="41.33" as="geometry" />
        </mxCell>
        <mxCell id="AzP6F-gZwt-fWo5-Fft6-11" value="" style="shape=image;verticalLabelPosition=bottom;labelBackgroundColor=default;verticalAlign=top;aspect=fixed;imageAspect=0;image=data:image/svg+xml,PHN2ZyB4bWw6c3BhY2U9InByZXNlcnZlIiBpZD0ic3ZnMjk4NSIgaGVpZ2h0PSIxODAuNjAzNDkiIHdpZHRoPSIzODEuODUxNSIgdmVyc2lvbj0iMS4xIiB4bWxuczp4bGluaz0iaHR0cDovL3d3dy53My5vcmcvMTk5OS94bGluayIgeG1sbnM9Imh0dHA6Ly93d3cudzMub3JnLzIwMDAvc3ZnIiB2aWV3Qm94PSIwIDAgMzgxLjg1MTUgMTgwLjYwMzQ5Ij48dGl0bGUgaWQ9InRpdGxlMjk5OCI+U1FMaXRlPC90aXRsZT48bWV0YWRhdGEgaWQ9Im1ldGFkYXRhMjk5MSI+aW1hZ2Uvc3ZnK3htbFNRTGl0ZTwvbWV0YWRhdGE+PGRlZnMgaWQ9ImRlZnMyOTg5Ij48bGluZWFyR3JhZGllbnQgc3ByZWFkTWV0aG9kPSJwYWQiIGdyYWRpZW50VHJhbnNmb3JtPSJtYXRyaXgoLTQuMDJlLTYsLTkxLjg5MDcsLTkxLjg5MDcsNC4wMmUtNiw4NS44ODA5LDE2MS40MzQpIiBncmFkaWVudFVuaXRzPSJ1c2VyU3BhY2VPblVzZSIgaWQ9ImxpbmVhckdyYWRpZW50MzAyNyIgeTI9IjAiIHgyPSIxIiB5MT0iMCIgeDE9IjAiPjxzdG9wIG9mZnNldD0iMCIgc3R5bGU9InN0b3AtY29sb3I6Izk3ZDlmNjtzdG9wLW9wYWNpdHk6MSIgaWQ9InN0b3AzMDI5Ii8+PHN0b3Agb2Zmc2V0PSIwLjkyMDI0NDk5IiBzdHlsZT0ic3RvcC1jb2xvcjojMGY4MGNjO3N0b3Atb3BhY2l0eToxIiBpZD0ic3RvcDMwMzEiLz48c3RvcCBvZmZzZXQ9IjEiIHN0eWxlPSJzdG9wLWNvbG9yOiMwZjgwY2M7c3RvcC1vcGFjaXR5OjEiIGlkPSJzdG9wMzAzMyIvPjwvbGluZWFyR3JhZGllbnQ+PGxpbmVhckdyYWRpZW50IHNwcmVhZE1ldGhvZD0icGFkIiBncmFkaWVudFRyYW5zZm9ybT0ibWF0cml4KC00LjAyZS03LC05LjE4OTA3LC05LjE4OTA3LDQuMDJlLTcsOC41ODgwOSwxNi4xNDM0KSIgZ3JhZGllbnRVbml0cz0idXNlclNwYWNlT25Vc2UiIHhsaW5rOmhyZWY9IiNsaW5lYXJHcmFkaWVudDMwMjciIGlkPSJsaW5lYXJHcmFkaWVudDU0MjEiIHkyPSItOS4xMDgyOTgzIiB4Mj0iLTYuNzQxMDA3MyIgeTE9Ii05LjEwODI5ODMiIHgxPSItMTUuNjE0Njk0Ii8+PGxpbmVhckdyYWRpZW50IHNwcmVhZE1ldGhvZD0icGFkIiBncmFkaWVudFRyYW5zZm9ybT0ibWF0cml4KC01LjAyNWUtNywxMS40ODYzMzcsLTExLjQ4NjMzNywtNS4wMjVlLTcsLTMwLjgzOTYzOCwyMDIuMTg2OTgpIiBncmFkaWVudFVuaXRzPSJ1c2VyU3BhY2VPblVzZSIgeGxpbms6aHJlZj0iI2xpbmVhckdyYWRpZW50MzAyNyIgaWQ9ImxpbmVhckdyYWRpZW50Mjk5NSIgeTI9Ii05LjEwODI5ODMiIHgyPSItNi43NDEwMDczIiB5MT0iLTkuMTA4Mjk4MyIgeDE9Ii0xNS42MTQ2OTQiLz48L2RlZnM+PHBhdGggc3R5bGU9ImZpbGw6IzAwM2I1NztmaWxsLW9wYWNpdHk6MTtmaWxsLXJ1bGU6bm9uemVybztzdHJva2U6bm9uZSIgaWQ9IlNRTGl0ZSIgZD0ibSAxNDcuNTMxMjUsODkuMjE4NzU1IGMgLTQuODIyNSwwIC04Ljc0Mzc1LDEuNDI3NSAtMTEuNzUsNC4yODEyNSAtMy4wMDYyNSwyLjg1NjI1IC00LjUzMTI1LDYuNjAwMTM1IC00LjUzMTI1LDExLjE4NzUwNSAwLDIuMzc3MzggMC4zNzg3NSw0LjU0NSAxLjEyNSw2LjUzMTI1IDAuNzQ2MjUsMS45OTAyNSAxLjkwNzUsMy44MzQgMy40Njg3NSw1LjUgMS41NjEyNSwxLjY2NzUgNC42ODYyNSwzLjkzMjYzIDkuMzQzNzUsNi44MTI1IDUuNzE1LDMuNDg4ODcgOS40NTUsNi4zMjAzNyAxMS4yNSw4LjUzMTI0IDEuNzk2MjUsMi4yMDkgMi42ODc1LDQuNTI0IDIuNjg3NSw2LjkzNzUgMCwzLjIzMTUgLTEuMDYzNzUsNS44MTEgLTMuMjUsNy43NSAtMi4xOSwxLjkzOTg4IC01LjExODc1LDIuOTA2MjUgLTguNzUsMi45MDYyNSAtMy44MywwIC03LjE2NjI1LC0xLjM1MDEyIC0xMC4wMzEyNSwtNC4wMzEyNSAtMi44NjUsLTIuNjg1IC00LjMxMTI1LC02LjIzNjM3IC00LjM0Mzc1LC0xMC42ODc1IGwgLTEuNzgxMjUsMCAwLDE2LjE1NjI1IDEuNzgxMjUsMCBjIDAuNTQzNzUsLTEuNTI5ODggMS4yOTYyNSwtMi4zMTI1IDIuMjgxMjUsLTIuMzEyNSAwLjQ3Mzc1LDAgMS41ODM3NSwwLjMyNjc1IDMuMzEyNSwwLjkzNzUgNC4yMDYyNSwxLjQ5NjYyIDcuNjYsMi4yMTg3NSAxMC4zNzUsMi4yMTg3NSA0LjY3ODc1LDAgOC42NzI1LC0xLjYzODYyIDEyLC00Ljk2ODc1IDMuMzIyNSwtMy4zMjg2MiA1LC03LjM0Mzc1IDUsLTEyLjAzMTI1IDAsLTMuNjM0NzUgLTEuMTA3NSwtNi44Njg2MyAtMy4yODEyNSwtOS42ODc0OSAtMi4xNzM3NSwtMi44MjIyNSAtNi40MDEyNSwtNi4xMDUwMSAtMTIuNzE4NzUsLTkuODc1IC01LjQzNjI1LC0zLjI2NjE0IC04Ljk2NSwtNS45MjYyNSAtMTAuNTkzNzUsLTggLTEuNjMxMjUsLTIuMDcwNzYgLTIuNDY4NzUsLTQuMzYxMzcgLTIuNDY4NzUsLTYuODc1IDAsLTIuNzE4NzU1IDAuOTk4NzUsLTQuOTAyNTA1IDIuOTY4NzUsLTYuNTMxMjU1IDEuOTcsLTEuNjMgNC41NTEyNSwtMi40Mzc1IDcuNzgxMjUsLTIuNDM3NSAzLjYzNSwwIDYuNjY1LDEuMDc4NzUgOS4wNjI1LDMuMjUgMi4zOTUsMi4xNzUgMy43OCw1LjE4OSA0LjE4NzUsOS4wNjI1MDUgbCAxLjc4MTI1LDAgMCwtMTQuMDAwMDA1IC0xLjY1NjI1LDAgYyAtMC4yMDI1LDAuNzEzNzUgLTAuMzksMS4xNyAtMC41NjI1LDEuMzc1IC0wLjE2NzUsMC4yMDM3NSAtMC40OSwwLjMxMjUgLTAuOTY4NzUsMC4zMTI1IC0wLjU3NjI1LDAgLTEuNjAzNzUsLTAuMjQyNSAtMy4wNjI1LC0wLjcxODc1IC0zLjEyNSwtMS4wNTI1IC02LjAwNjI1LC0xLjU5Mzc1IC04LjY1NjI1LC0xLjU5Mzc1IHogbSA1OC4yMTg3NSwwIGMgLTUuODc2MjUsMCAtMTEuMjExMjUsMS4zODUgLTE2LjAzMTI1LDQuMTU2MjUgLTQuODI3NSwyLjc2NjI1IC04LjY0ODc1LDYuNjA3NSAtMTEuNDY4NzUsMTEuNTAwMDA1IC0yLjgxODc1LDQuODkyMTIgLTQuMjE4NzUsMTAuMDg3ODYgLTQuMjE4NzUsMTUuNjI1IDAsNy40Mzg5OSAyLjQzNSwxNC4wNjYzNiA3LjM0Mzc1LDE5Ljg3NDk5IDQuOTExMjUsNS44MDUxMyAxMC43OTYyNSw5LjQyMjM4IDE3LjYyNSwxMC44MTI1IDEuNTYxMjUsMC44MTM1IDMuNzk1LDIuOTEzNSA2LjcxODc1LDYuMzEyNSAzLjI5NSwzLjgzNTg3IDYuMDgyNSw2LjYwMjUgOC4zNzUsOC4yNSAyLjI5LDEuNjQ4MzcgNC43NjI1LDIuODU2NSA3LjM3NSwzLjY1NjI1IDIuNjE1LDAuNzk2MzggNS40NDI1LDEuMTg3NSA4LjUsMS4xODc1IDMuNzAyNSwwIDcuMDE3NSwtMC42NDM1IDkuOTM3NSwtMS45Njg3NSBMIDIzOS4yNSwxNjcgYyAtMS42OTUsMC42MTEzOCAtMy41MDI1LDAuOTA2MjUgLTUuNDA2MjUsMC45MDYyNSAtMi41ODM3NSwwIC01LjE5NSwtMC44NTIgLTcuODEyNSwtMi41NjI1IC0yLjYxMzc1LC0xLjcxNDc1IC01Ljg4MjUsLTQuOTg2MzcgLTkuNzgxMjUsLTkuODEyNSAtMS44MzI1LC0yLjMxMjUgLTMuMDk3NSwtMy43NzE1IC0zLjgxMjUsLTQuMzQzNzUgNy40NzEyNSwtMS40NTkgMTMuNjE1LC01LjA4IDE4LjQwNjI1LC0xMC44NzUgNC43OSwtNS43OTI1IDcuMTg3NSwtMTIuNDAzMzYgNy4xODc1LC0xOS44MTI0OSAwLC04Ljc5NzM5IC0zLjEzLC0xNi4xOTA4OCAtOS4zNDM3NSwtMjIuMjE4NzU1IC02LjIxODc1LC02LjAyODUgLTEzLjg2NjI1LC05LjA2MjUgLTIyLjkzNzUsLTkuMDYyNSB6IG0gMzYuMzQzNzUsMCAwLjA5MzcsMS45MDYyNSBjIDMuOTEyNSwwIDYuMTAzNzUsMS4xNTI1IDYuNTkzNzUsMy40Njg3NSAwLjE4MjUsMC44Mjg3NSAwLjI2NjI1LDIuMzU5IDAuMjgxMjUsNC41NjI1IGwgLTAuMDMxMiw0Mi4xNTYyNDUgYyAtMC4wMzI1LDMuMTQ4NSAtMC40ODEyNSw1LjE1ODc1IC0xLjM0Mzc1LDYuMDMxMjUgLTAuODYzNzUsMC44NjYyNSAtMi4zMjM3NSwxLjQwODc1IC00LjQzNzUsMS42MjUgbCAtMC4wOTM3LDEuOTA2MjUgMzksMCAxLC05LjU2MjUgLTEuNzgxMjUsMCBjIC0wLjUwODc1LDIuNjA1IC0xLjY3NSw0LjQ3MTEzIC0zLjUzMTI1LDUuNTMxMjUgLTEuODYxMjUsMS4wNjc4NyAtNS4xNTI1LDEuNTkzNzUgLTkuOTA2MjUsMS41OTM3NSBsIC0zLjY4NzUsMCBjIC00LjI3NzUsMCAtNi43NTI1LC0xLjU0NjM4IC03LjQwNjI1LC00LjY1NjI1IC0wLjEzNSwtMC42MTUyNSAtMC4xODEyNSwtMS4yNzQ4OCAtMC4xODc1LC0yIGwgMC4xNTYyNSwtNDIuNjI0OTk1IGMgLTEwZS00LC0zLjE0MzUgMC4zOTYyNSwtNS4yNSAxLjIxODc1LC02LjI4MTI1IDAuODMxMjUsLTEuMDI3NSAyLjMzLC0xLjYwMjUgNC41LC0xLjc1IGwgLTAuMDkzNywtMS45MDYyNSAtMjAuMzQzNzUsMCB6IG0gLTM1LjcxODc1LDIuMzEyNSBjIDYuNjI3NSwwIDEyLjAzODc1LDIuNjEwMjUgMTYuMjE4NzUsNy44NzUgNC4xNzg3NSw1LjI2NjYzNSA2LjI1LDEyLjQ4NDg3NSA2LjI1LDIxLjYyNTAwNSAwLDguNjYxMTEgLTIuMTAxMjUsMTUuNTk2MTIgLTYuMzEyNSwyMC44MTI0OSAtNC4yMTEyNSw1LjIxNDc1IC05LjgxNjI1LDcuODEyNSAtMTYuNzgxMjUsNy44MTI1IC02LjY5MTI1LDAgLTEyLjExNzUsLTIuNjc4NzUgLTE2LjI4MTI1LC04LjA2MjUgLTQuMTYsLTUuMzgzNzUgLTYuMjE4NzUsLTEyLjM3MzUgLTYuMjE4NzUsLTIwLjk2ODc0IDAsLTguODMyNSAyLjA4Mzc1LC0xNS45MDI4OCA2LjI4MTI1LC0yMS4xODc1MDUgNC4xOTUsLTUuMjc5IDkuODEyNSwtNy45MDYyNSAxNi44NDM3NSwtNy45MDYyNSB6IG0gODkuNjg3NSw5LjA2MjUwNSBjIC0wLjk1MTI1LDAgLTEuNjc2MjUsMC4zMjEyNSAtMi4yMTg3NSwwLjk2ODc1IC0wLjU1NSwwLjY0NDk5IC0wLjcyNSwxLjQyNjI0IC0wLjUzMTI1LDIuMzc1IDAuMTg3NSwwLjkyMDM3IDAuNzA2MjUsMS43MjcgMS41MzEyNSwyLjQwNjI1IDAuODIsMC42Nzg2MSAxLjcwNSwxLjAzMTI1IDIuNjU2MjUsMS4wMzEyNSAwLjkyLDAgMS42MjEyNSwtMC4zNTI2MiAyLjEyNSwtMS4wMzEyNSAwLjUwMzc1LC0wLjY3OTI1IDAuNjU3NSwtMS40ODU4OCAwLjQ2ODc1LC0yLjQwNjI1IC0wLjE5Mzc1LC0wLjk0ODc2IC0wLjY5NSwtMS43MzAwMSAtMS40Njg3NSwtMi4zNzUgLTAuNzgyNSwtMC42NDc1IC0xLjY0MjUsLTAuOTY4NzUgLTIuNTYyNSwtMC45Njg3NSB6IG0gMjUuNzE4NzUsNi40Njg3NSBjIC0xLjYxNjI1LDYuMjE3NzQgLTUuMTIsOS41ODI0OSAtMTAuNSwxMC4xMjUgbCAwLjA2MjUsMS43ODEyNSA2LjI4MTI1LDAgLTAuMTI1LDIxLjA2MjQ5IGMgMC4wMSwzLjYwMSAwLjEyLDUuOTk4NSAwLjM3NSw3LjIxODc1IDAuNjE4NzUsMi45MjEzOCAyLjUyNjI1LDQuNDA2MjUgNS43MTg3NSw0LjQwNjI1IDQuNjE4NzUsMCA5LjQ2Mzc1LC0yLjgxMzUgMTQuNTMxMjUsLTguNDM3NSBsIC0xLjUzMTI1LC0xLjMxMjUgYyAtMy42NTg3NSwzLjcwMzYzIC02Ljg5Mzc1LDUuNTYyNSAtOS43MTg3NSw1LjU2MjUgLTEuNzM2MjUsMCAtMi44MTI1LC0wLjk5ODUgLTMuMjE4NzUsLTIuOTY4NzUgQyAzMjMuNTQ1LDE0NC4wMjE1IDMyMy41LDE0My40NjIzOCAzMjMuNSwxNDIuODEyNSBsIDAuMDYyNSwtMjMuODQzNzQgOS41OTM3NSwwIC0wLjA5MzcsLTIuODQzNzUgLTkuNDY4NzUsMCAwLC05LjA2MjUgLTEuODEyNSwwIHogbSAzNy4wOTM3NSw3LjkzNzUgYyAtNS4zNjYyNSwwIC05LjczMTI1LDIuNjA1IC0xMy4xMjUsNy43ODEyNSAtMy4zNzYyNSw1LjE4NSAtNC40MjEyNSwxMC45Mjk2MSAtMy4wOTM3NSwxNy4yNDk5OSAwLjc4MTI1LDMuNzAyMTIgMi4zMzc1LDYuNTcxMzggNC43MTg3NSw4LjU5Mzc1IDIuMzc3NSwyLjAyMTUgNS4zOTM3NSwzLjAzMTI1IDksMy4wMzEyNSAzLjM1NzUsMCA4LjAzMjUsLTAuODUwMTIgMTAsLTIuNTYyNSAxLjk3MjUsLTEuNzExMzggMy43OSwtNC40ODM4OCA1LjQ2ODc1LC04LjI4MTI1IEwgMzcwLjUsMTM5LjQwNjI1IGMgLTIuNjc3NSw0LjkyNjI1IC04LjA4MTI1LDcuNDA2MjUgLTEyLjE1NjI1LDcuNDA2MjUgLTUuNjAyNSwwIC05LjAzMzc1LC0zLjA3Mzc1IC0xMC4zMTI1LC05LjE4NzUgLTAuMTY2MjUsLTAuNzgwMzggLTAuMjksLTEuNjE4NzUgLTAuMzc1LC0yLjUgNi42NjUsLTEuMDU1MjUgMTEuNzE2MjUsLTIuOTIzODggMTUuMTI1LC01LjYyNSAzLjQwNjI1LC0yLjcwMjYxIDYuODI2MjUsLTUuNTY3MzcgNi4xODc1LC04LjU5Mzc0IC0wLjM4LC0xLjc5ODM4IC0xLjMxMzc1LC0zLjIxMjM4IC0yLjc1LC00LjI4MTI1IC0xLjQ1NSwtMS4wNjgzNyAtNS4yMzI1LC0xLjYyNSAtNy4zNDM3NSwtMS42MjUgeiBtIC01OC42NTYyNSwwLjIxODc1IC0xMS41NjI1LDIuNjU2MjUgMCwyLjA2MjUgNCwtMC41IGMgMS45Mzc1LDAgMy4wNzc1LDAuODc3MzggMy40Mzc1LDIuNjI1IDAuMTIxMjUsMC41ODQ4OCAwLjE5NzUsMS40MDYyNSAwLjIxODc1LDIuNDM3NSBsIC0wLjEyNSwxOC45MDYyNCBjIC0wLjAzMjUsMi42MTYyNSAtMC4zMjI1LDQuMTM3MTIgLTAuOTA2MjUsNC41OTM3NSAtMC41ODg3NSwwLjQ1NzUgLTIuMTQxMjUsMC42ODc1IC00LjY1NjI1LDAuNjg3NSBsIC0wLjA2MjUsMS43ODEyNSAxOC4zNDM3NSwwIC0wLjAzMTIsLTEuNzgxMjUgYyAtMi41NDg3NSwwIC00LjIwMTI1LC0wLjIwMTEyIC00LjkzNzUsLTAuNTkzNzUgLTAuNzIzNzUsLTAuMzkwMTIgLTEuMjIyNSwtMS4xMDAxMiAtMS40Mzc1LC0yLjE4NzUgLTAuMTY2MjUsLTAuNzgzNjMgLTAuMjM4NzUsLTIuMTMzODcgLTAuMjUsLTQgbCAwLjA2MjUsLTI2LjY4NzQ5IC0yLjA5Mzc1LDAgeiBtIDU1LjcxODc1LDMuNSBjIDEuMTE2MjUsMCAyLjE5NSwwLjQzMTEyIDMuMjgxMjUsMS4yODEyNSAxLjA3MTI1LDAuODQ3MTMgMS43MjM3NSwxLjc4OTEyIDEuOTM3NSwyLjgxMjUgMS4wNDYyNSw1LjAyNjM4IC0zLjQxLDguNTAxMzYgLTEzLjQzNzUsMTAuNDM3NDkgLTAuMjg2MjUsLTMuNjY1MTIgMC4zNDg3NSwtNi45OTIyNCAxLjk2ODc1LC05Ljk5OTk5IDEuNjA3NSwtMy4wMDQ4OCAzLjcwMTI1LC00LjUzMTI1IDYuMjUsLTQuNTMxMjUgeiIvPjxwYXRoIHN0eWxlPSJmaWxsOiMwZjgwY2M7ZmlsbC1vcGFjaXR5OjE7ZmlsbC1ydWxlOm5vbnplcm87c3Ryb2tlOm5vbmUiIGlkPSJzb2xpZC1iYWNrZ3JvdW5kIiBkPSJtIDEyMS42MzE1LDE3LjAzNjIzIC05OS41MDYsMCBDIDE1LjQ1NjUsMTcuMDM2MjMgMTAsMjIuNDkzNzMgMTAsMjkuMTYyNDggbCAwLDEwOS43MzY1IGMgMCw2LjY2ODM3IDUuNDU2NSwxMi4xMjUgMTIuMTI1NSwxMi4xMjUgbCA2NS41MzcyNSwwIEMgODYuOTE4ODg0LDExOC40MTQ3NyA5OC4wNTQ0OTksNTUuMTMwNDAyIDEyMS42MzE1LDE3LjAzNjIzIHoiLz48cGF0aCBzdHlsZT0iZmlsbDp1cmwoI2xpbmVhckdyYWRpZW50Mjk5NSk7ZmlsbC1vcGFjaXR5OjE7ZmlsbC1ydWxlOm5vbnplcm87c3Ryb2tlOm5vbmUiIGlkPSJncmFkaWVudC1iYWNrZ3JvdW5kIiBkPSJtIDExOC4wMTY1LDIwLjU3MzczIC05NS44OTEsMCBjIC00LjczNTM3NSwwIC04LjU4ODg3NSwzLjg1MjUgLTguNTg4ODc1LDguNTg4NzUgbCAwLDEwMS43MzAxMyBjIDIxLjcxNzI1LC04LjMzNSA1NC4zMTIyMSwtMTUuNTI2OSA3Ni44NDk1ODUsLTE1LjIwMDI3IDQuNTI4OTMsLTIzLjY4MDkwMSAxNy44Mzk0MSwtNzAuMDkwNDI0IDI3LjYzMDI5LC05NS4xMTg2MSB6Ii8+PHBhdGggc3R5bGU9ImZpbGw6IzAwM2I1NztmaWxsLW9wYWNpdHk6MTtmaWxsLXJ1bGU6bm9uemVybztzdHJva2U6bm9uZSIgaWQ9ImZlYXRoZXIiIGQ9Im0gMTQ0Ljg0MTUsMTMuNDQ0OTggYyAtNi44MTUsLTYuMDc3NSAtMTUuMDY2MjUsLTMuNjM2MjUgLTIzLjIxLDMuNTkxMjUgLTEuMjA4NzUsMS4wNzM3NSAtMi40MTUsMi4yNjUgLTMuNjE1LDMuNTM3NSAtMTMuOTMxMjUsMTQuNzc4NzUgLTI2Ljg2MjUsNDIuMTUzNzUgLTMwLjg4LDYzLjA2IDEuNTY1LDMuMTczNzUgMi43ODc1LDcuMjIzNzUgMy41OTI1LDEwLjMxNzUgMC4yMDYyNSwwLjc5Mzc1IDAuMzkyNSwxLjUzODc1IDAuNTQxMjUsMi4xNzI1IDAuMzUzNzUsMS40OTk4NzUgMC41NDM3NSwyLjQ3MjUgMC41NDM3NSwyLjQ3MjUgMCwwIC0wLjEyNSwtMC40NzI2MjUgLTAuNjM3NSwtMS45NTg3NSAtMC4wOTc1LC0wLjI4NSAtMC4yMDYyNSwtMC41OTYyNSAtMC4zMzUsLTAuOTYyNSAtMC4wNTUsLTAuMTUxMjUgLTAuMTMxMjUsLTAuMzM1IC0wLjIxNSwtMC41MzEyNSAtMC45MDg3NSwtMi4xMTI1IC0zLjQyMjUsLTYuNTcxMjUgLTQuNTI4NzUsLTguNTEyNSAtMC45NDYyNSwyLjc5MTI1IC0xLjc4MjUsNS40MDI1IC0yLjQ4MjUsNy43NjUgMy4xOTM3NSw1Ljg0MzUgNS4xNCwxNS44NTc3NSA1LjE0LDE1Ljg1Nzc1IDAsMCAtMC4xNjg3NSwtMC42NDkgLTAuOTcxMjUsLTIuOTE0MTIgLTAuNzEyNSwtMi4wMDMzOCAtNC4yNjEyNSwtOC4yMjExMyAtNS4xMDE4NzUsLTkuNjc0NzU1IC0xLjQzOCw1LjMwODUwNSAtMi4wMDkzNzUsOC44OTI1MDUgLTEuNDk0MTI1LDkuNzY1MTI1IDEuMDAwMzc1LDEuNjkwODggMS45NTMxMjUsNC42MDgzOCAyLjc4OTc1LDcuODM0ODggMS44OSw3LjI2ODYyIDMuMjAzNzUsMTYuMTE3MjUgMy4yMDM3NSwxNi4xMTcyNSAwLDAgMC4wNDI1LDAuNTg2MzcgMC4xMTM3NSwxLjQ4ODc1IC0wLjI2MjUsNi4xMDQgLTAuMTA1LDEyLjQzMjYyIDAuMzY3NSwxOC4xNTI4NyAwLjYyNjI1LDcuNTcyMjUgMS44MDUsMTQuMDc3MTMgMy4zMDc1LDE3LjU1ODUgbCAxLjAyLC0wLjU1NjEyIGMgLTIuMjA2MjUsLTYuODU4ODggLTMuMTAyNSwtMTUuODQ3NjMgLTIuNzEsLTI2LjIxMzg4IDAuNTkzNzUsLTE1Ljg0NTEyIDQuMjQsLTM0Ljk1MzYyIDEwLjk3NzUsLTU0Ljg3IDExLjM4MjUsLTMwLjA2NSAyNy4xNzUsLTU0LjE4NzUgNDEuNjI4NzUsLTY1LjcwNzUgLTEzLjE3Mzc1LDExLjg5NzUgLTMxLjAwMzc1LDUwLjQwODc1IC0zNi4zNDEyNSw2NC42NyAtNS45NzYyNSwxNS45NyAtMTAuMjExMjUsMzAuOTU2MzggLTEyLjc2Mzc1LDQ1LjMxNDc1IDQuNDAzNzUsLTEzLjQ2MDg3IDE4LjY0MjUsLTE5LjI0NyAxOC42NDI1LC0xOS4yNDcgMCwwIDYuOTgzNzUsLTguNjEyODcgMTUuMTQ1LC0yMC45MTc3NSAtNC44ODg3NSwxLjExNSAtMTIuOTE2MjUsMy4wMjM3NSAtMTUuNjA1LDQuMTUzNzUgLTMuOTY2MjUsMS42NjM3NSAtNS4wMzUsMi4yMzEyNSAtNS4wMzUsMi4yMzEyNSAwLDAgMTIuODQ3NSwtNy44MjM3NSAyMy44NywtMTEuMzY2MjUgMTUuMTU4NzUsLTIzLjg3NSAzMS42NzM3NSwtNTcuNzkyNSAxNS4wNDI1LC03Mi42Mjg3NSIvPjwvc3ZnPg==;" vertex="1" parent="1">
          <mxGeometry x="740" y="411.5700000000001" width="60" height="28.43" as="geometry" />
        </mxCell>
        <mxCell id="AzP6F-gZwt-fWo5-Fft6-13" value="" style="shape=image;verticalLabelPosition=bottom;labelBackgroundColor=default;verticalAlign=top;aspect=fixed;imageAspect=0;image=data:image/svg+xml,PHN2ZyB4bWxucz0iaHR0cDovL3d3dy53My5vcmcvMjAwMC9zdmciIGZpbGw9Im5vbmUiIHZpZXdCb3g9IjAgMCA5NiA5NiIgaGVpZ2h0PSI5NiIgd2lkdGg9Ijk2Ij4mI3hhOzxkZWZzPiYjeGE7PGZpbHRlciBpZD0iZmlsdGVyMF9mIj4mI3hhOzxmZUZsb29kIHJlc3VsdD0iQmFja2dyb3VuZEltYWdlRml4IiBmbG9vZC1vcGFjaXR5PSIwIi8+JiN4YTs8ZmVCbGVuZCByZXN1bHQ9InNoYXBlIiBpbjI9IkJhY2tncm91bmRJbWFnZUZpeCIgaW49IlNvdXJjZUdyYXBoaWMiIG1vZGU9Im5vcm1hbCIvPiYjeGE7PGZlR2F1c3NpYW5CbHVyIHJlc3VsdD0iZWZmZWN0MV9mb3JlZ3JvdW5kQmx1ciIgc3RkRGV2aWF0aW9uPSI0Ii8+JiN4YTs8L2ZpbHRlcj4mI3hhOzxmaWx0ZXIgaWQ9ImZpbHRlcjFfZiI+JiN4YTs8ZmVGbG9vZCByZXN1bHQ9IkJhY2tncm91bmRJbWFnZUZpeCIgZmxvb2Qtb3BhY2l0eT0iMCIvPiYjeGE7PGZlQmxlbmQgcmVzdWx0PSJzaGFwZSIgaW4yPSJCYWNrZ3JvdW5kSW1hZ2VGaXgiIGluPSJTb3VyY2VHcmFwaGljIiBtb2RlPSJub3JtYWwiLz4mI3hhOzxmZUdhdXNzaWFuQmx1ciByZXN1bHQ9ImVmZmVjdDFfZm9yZWdyb3VuZEJsdXIiIHN0ZERldmlhdGlvbj0iMC4zOCIvPiYjeGE7PC9maWx0ZXI+JiN4YTs8bGluZWFyR3JhZGllbnQgZ3JhZGllbnRVbml0cz0idXNlclNwYWNlT25Vc2UiIHkyPSItNDAuOTk5OCIgeDI9IjE1IiB5MT0iOTYuMDAwMiIgeDE9IjcxIiBpZD0icGFpbnQwX2xpbmVhciI+JiN4YTs8c3RvcCBzdG9wLWNvbG9yPSIjNzQyNzc0Ii8+JiN4YTs8c3RvcCBzdG9wLWNvbG9yPSIjQkIzNUE0IiBvZmZzZXQ9IjEiLz4mI3hhOzwvbGluZWFyR3JhZGllbnQ+JiN4YTs8bGluZWFyR3JhZGllbnQgZ3JhZGllbnRVbml0cz0idXNlclNwYWNlT25Vc2UiIHkyPSI5Ni4wMDAyIiB4Mj0iNzgiIHkxPSIwLjAwMDI0MzYiIHgxPSIzMiIgaWQ9InBhaW50MV9saW5lYXIiPiYjeGE7PHN0b3Agc3RvcC1jb2xvcj0iI0U0OENDNyIvPiYjeGE7PHN0b3Agc3RvcC1jb2xvcj0iI0Q0NjdCOSIgb2Zmc2V0PSIxIi8+JiN4YTs8L2xpbmVhckdyYWRpZW50PiYjeGE7PGxpbmVhckdyYWRpZW50IGdyYWRpZW50VW5pdHM9InVzZXJTcGFjZU9uVXNlIiB5Mj0iNzIiIHgyPSI3NiIgeTE9IjI5LjAwMDIiIHgxPSI2MiIgaWQ9InBhaW50Ml9saW5lYXIiPiYjeGE7PHN0b3Agc3RvcC1jb2xvcj0iI0U5QTFDQiIvPiYjeGE7PHN0b3Agc3RvcC1jb2xvcj0iI0U0OENDNyIgb2Zmc2V0PSIxIi8+JiN4YTs8L2xpbmVhckdyYWRpZW50PiYjeGE7PGNsaXBQYXRoIGlkPSJjbGlwMCI+JiN4YTs8cmVjdCBmaWxsPSJ3aGl0ZSIgaGVpZ2h0PSI5NiIgd2lkdGg9Ijk2Ii8+JiN4YTs8L2NsaXBQYXRoPiYjeGE7PGNsaXBQYXRoIGlkPSJjbGlwMSI+JiN4YTs8cmVjdCBmaWxsPSJ3aGl0ZSIgaGVpZ2h0PSI5NiIgd2lkdGg9Ijk2Ii8+JiN4YTs8L2NsaXBQYXRoPiYjeGE7PGNsaXBQYXRoIGlkPSJjbGlwMiI+JiN4YTs8cmVjdCB0cmFuc2Zvcm09InRyYW5zbGF0ZSgwIDAuMDAwMTIyMDcpIiBmaWxsPSJ3aGl0ZSIgaGVpZ2h0PSI5NiIgd2lkdGg9Ijk2Ii8+JiN4YTs8L2NsaXBQYXRoPiYjeGE7PC9kZWZzPiYjeGE7PGcgY2xpcC1wYXRoPSJ1cmwoI2NsaXAwKSI+JiN4YTs8ZyBjbGlwLXBhdGg9InVybCgjY2xpcDEpIj4mI3hhOzxnIGNsaXAtcGF0aD0idXJsKCNjbGlwMikiPiYjeGE7PG1hc2sgaGVpZ2h0PSI5NCIgd2lkdGg9Ijk3IiB5PSIxIiB4PSItMSIgbWFza1VuaXRzPSJ1c2VyU3BhY2VPblVzZSIgaWQ9Im1hc2swIj4mI3hhOzxwYXRoIGZpbGw9IndoaXRlIiBkPSJNMS40NTcxNSA0NC4wNDlDLTAuNTIyMjM3IDQ2LjMxMTEgLTAuNTIyMjM4IDQ5LjY4ODkgMS40NTcxNSA1MS45NTFMMzYuOTg5NyA5Mi41NTk2QzM4LjU4MzMgOTQuMzgxIDQxLjQxNjcgOTQuMzgxIDQzLjAxMDMgOTIuNTU5Nkw0Ni44MzY3IDg4LjE4NjZMNTEuMDUwNCA5Mi43ODMzQzUyLjYzNTggOTQuNTEyOCA1NS4zNjIzIDk0LjUxMjggNTYuOTQ3NiA5Mi43ODMzTDk0LjI4MjUgNTIuMDU0M0M5Ni4zODUzIDQ5Ljc2MDQgOTYuMzg1MyA0Ni4yMzk2IDk0LjI4MjUgNDMuOTQ1N0w1Ni45NDc2IDMuMjE2NjdDNTUuMzYyMyAxLjQ4NzIgNTIuNjM1OCAxLjQ4NzIgNTEuMDUwNCAzLjIxNjY3TDQ2LjgzNjcgNy44MTM0MUw0My4wMTAzIDMuNDQwMzVDNDEuNDE2NyAxLjYxOTA0IDM4LjU4MzMgMS42MTkwNCAzNi45ODk3IDMuNDQwMzVMMS40NTcxNSA0NC4wNDlaIi8+JiN4YTs8L21hc2s+JiN4YTs8ZyBtYXNrPSJ1cmwoI21hc2swKSI+JiN4YTs8cGF0aCBmaWxsPSJ1cmwoI3BhaW50MF9saW5lYXIpIiBkPSJNNDAgOTZMLTIgNDhMNDAgMEw4MiA0OEw0MCA5NloiLz4mI3hhOzxnIGZpbHRlcj0idXJsKCNmaWx0ZXIwX2YpIj4mI3hhOzxwYXRoIGZpbGwtb3BhY2l0eT0iMC4zMiIgZmlsbD0iYmxhY2siIGQ9Ik01My45OTkgMkw5Ny45OTkgNTBMNTMuOTk5IDk4TDM0LjQ3NjcgNzYuNzAyOUMzMy4wNzQ4IDc1LjE3MzYgMzMuMDc0OCA3Mi44MjY0IDM0LjQ3NjcgNzEuMjk3MUw1MS41MjE0IDUyLjcwMjlDNTIuOTIzMiA1MS4xNzM2IDUyLjkyMzIgNDguODI2NCA1MS41MjE0IDQ3LjI5NzFMMzQuNDc2NyAyOC43MDI5QzMzLjA3NDggMjcuMTczNiAzMy4wNzQ4IDI0LjgyNjQgMzQuNDc2NyAyMy4yOTcxTDUzLjk5OSAyWiIvPiYjeGE7PC9nPiYjeGE7PGcgZmlsdGVyPSJ1cmwoI2ZpbHRlcjFfZikiPiYjeGE7PHBhdGggZmlsbC1vcGFjaXR5PSIwLjI0IiBmaWxsPSJibGFjayIgZD0iTTUzLjk5OSAwLjM4MDEyN0w5Ny45OTkgNDguMzgwMUw1My45OTkgOTYuMzgwMUwzNC40NzY3IDc1LjA4M0MzMy4wNzQ4IDczLjU1MzcgMzMuMDc0OCA3MS4yMDY1IDM0LjQ3NjcgNjkuNjc3Mkw1MS41MjE0IDUxLjA4M0M1Mi45MjMyIDQ5LjU1MzcgNTIuOTIzMiA0Ny4yMDY1IDUxLjUyMTQgNDUuNjc3MkwzNC40NzY3IDI3LjA4M0MzMy4wNzQ4IDI1LjU1MzcgMzMuMDc0OCAyMy4yMDY1IDM0LjQ3NjcgMjEuNjc3Mkw1My45OTkgMC4zODAxMjdaIi8+JiN4YTs8L2c+JiN4YTs8cGF0aCBmaWxsPSJ1cmwoI3BhaW50MV9saW5lYXIpIiBkPSJNNTMuOTk5IDBMOTcuOTk5IDQ4TDUzLjk5OSA5NkwzNC40NzY3IDc0LjcwMjlDMzMuMDc0OCA3My4xNzM2IDMzLjA3NDggNzAuODI2NCAzNC40NzY3IDY5LjI5NzFMNTEuNTIxNCA1MC43MDI5QzUyLjkyMzIgNDkuMTczNiA1Mi45MjMyIDQ2LjgyNjQgNTEuNTIxNCA0NS4yOTcxTDM0LjQ3NjcgMjYuNzAyOUMzMy4wNzQ4IDI1LjE3MzYgMzMuMDc0OCAyMi44MjY0IDM0LjQ3NjcgMjEuMjk3MUw1My45OTkgMFoiLz4mI3hhOzxwYXRoIGZpbGw9InVybCgjcGFpbnQyX2xpbmVhcikiIGQ9Ik03My4wNTE0IDI3LjIxNjdDNzQuNjM2NyAyNS40ODcyIDc3LjM2MzMgMjUuNDg3MiA3OC45NDg2IDI3LjIxNjdMOTggNDhMNzguOTQ4NiA2OC43ODMzQzc3LjM2MzMgNzAuNTEyOCA3NC42MzY3IDcwLjUxMjggNzMuMDUxNCA2OC43ODMzTDU3LjcxNjUgNTIuMDU0M0M1NS42MTM3IDQ5Ljc2MDQgNTUuNjEzNyA0Ni4yMzk2IDU3LjcxNjUgNDMuOTQ1N0w3My4wNTE0IDI3LjIxNjdaIi8+JiN4YTs8L2c+JiN4YTs8L2c+JiN4YTs8L2c+JiN4YTs8L2c+JiN4YTs8L3N2Zz4=;" vertex="1" parent="1">
          <mxGeometry x="250" y="515.3299999999999" width="36" height="36" as="geometry" />
        </mxCell>
        <object placeholders="1" c4Name="User" c4Type="Person" c4Description="Daily use of updated messages" label="&lt;font style=&quot;font-size: 16px&quot;&gt;&lt;b&gt;%c4Name%&lt;/b&gt;&lt;/font&gt;&lt;div&gt;[%c4Type%]&lt;/div&gt;&lt;br&gt;&lt;div&gt;&lt;font style=&quot;font-size: 11px&quot;&gt;&lt;font color=&quot;#cccccc&quot;&gt;%c4Description%&lt;/font&gt;&lt;/div&gt;" id="AzP6F-gZwt-fWo5-Fft6-16">
          <mxCell style="html=1;fontSize=11;dashed=0;whiteSpace=wrap;fillColor=#083F75;strokeColor=#06315C;fontColor=#ffffff;shape=mxgraph.c4.person2;align=center;metaEdit=1;points=[[0.5,0,0],[1,0.5,0],[1,0.75,0],[0.75,1,0],[0.5,1,0],[0.25,1,0],[0,0.75,0],[0,0.5,0]];resizable=0;" vertex="1" parent="1">
            <mxGeometry x="620" y="730" width="200" height="180" as="geometry" />
          </mxCell>
        </object>
        <object placeholders="1" c4Name="Admin" c4Type="Person" c4Description="Prioritises messages" label="&lt;font style=&quot;font-size: 16px&quot;&gt;&lt;b&gt;%c4Name%&lt;/b&gt;&lt;/font&gt;&lt;div&gt;[%c4Type%]&lt;/div&gt;&lt;br&gt;&lt;div&gt;&lt;font style=&quot;font-size: 11px&quot;&gt;&lt;font color=&quot;#cccccc&quot;&gt;%c4Description%&lt;/font&gt;&lt;/div&gt;" id="AzP6F-gZwt-fWo5-Fft6-17">
          <mxCell style="html=1;fontSize=11;dashed=0;whiteSpace=wrap;fillColor=#083F75;strokeColor=#06315C;fontColor=#ffffff;shape=mxgraph.c4.person2;align=center;metaEdit=1;points=[[0.5,0,0],[1,0.5,0],[1,0.75,0],[0.75,1,0],[0.5,1,0],[0.25,1,0],[0,0.75,0],[0,0.5,0]];resizable=0;" vertex="1" parent="1">
            <mxGeometry x="260" y="730" width="200" height="180" as="geometry" />
          </mxCell>
        </object>
        <object placeholders="1" c4Type="Relationship" c4Description="Retrieves messages" label="&lt;div style=&quot;text-align: left&quot;&gt;&lt;div style=&quot;text-align: center&quot;&gt;&lt;b&gt;%c4Description%&lt;/b&gt;&lt;/div&gt;" id="AzP6F-gZwt-fWo5-Fft6-18">
          <mxCell style="endArrow=blockThin;html=1;fontSize=10;fontColor=#404040;strokeWidth=1;endFill=1;strokeColor=#828282;elbow=vertical;metaEdit=1;endSize=14;startSize=14;jumpStyle=arc;jumpSize=16;rounded=0;edgeStyle=orthogonalEdgeStyle;exitX=0.013;exitY=0.558;exitDx=0;exitDy=0;exitPerimeter=0;entryX=1;entryY=0.5;entryDx=0;entryDy=0;entryPerimeter=0;" edge="1" parent="1" source="PGkPKVcrgzVjSJd_lX84-1" target="AzP6F-gZwt-fWo5-Fft6-2">
            <mxGeometry x="-0.4459" y="-17" width="240" relative="1" as="geometry">
              <mxPoint x="360" y="570" as="sourcePoint" />
              <mxPoint x="600" y="570" as="targetPoint" />
              <mxPoint as="offset" />
            </mxGeometry>
          </mxCell>
        </object>
        <object placeholders="1" c4Type="Relationship" c4Technology="REST" c4Description="User API" label="&lt;div style=&quot;text-align: left&quot;&gt;&lt;div style=&quot;text-align: center&quot;&gt;&lt;b&gt;%c4Description%&lt;/b&gt;&lt;/div&gt;&lt;div style=&quot;text-align: center&quot;&gt;[%c4Technology%]&lt;/div&gt;&lt;/div&gt;" id="AzP6F-gZwt-fWo5-Fft6-22">
          <mxCell style="endArrow=blockThin;html=1;fontSize=10;fontColor=#404040;strokeWidth=1;endFill=1;strokeColor=#828282;elbow=vertical;metaEdit=1;endSize=14;startSize=14;jumpStyle=arc;jumpSize=16;rounded=0;edgeStyle=orthogonalEdgeStyle;entryX=0.75;entryY=1;entryDx=0;entryDy=0;entryPerimeter=0;exitX=0.25;exitY=0;exitDx=0;exitDy=0;exitPerimeter=0;" edge="1" parent="1" source="PGkPKVcrgzVjSJd_lX84-3" target="PGkPKVcrgzVjSJd_lX84-1">
            <mxGeometry x="-0.25" width="240" relative="1" as="geometry">
              <mxPoint x="560" y="490" as="sourcePoint" />
              <mxPoint x="690" y="500" as="targetPoint" />
              <Array as="points">
                <mxPoint x="660" y="410" />
                <mxPoint x="600" y="410" />
              </Array>
              <mxPoint as="offset" />
            </mxGeometry>
          </mxCell>
        </object>
        <object placeholders="1" c4Type="Relationship" c4Technology="REST" c4Description="Admin API" label="&lt;div style=&quot;text-align: left&quot;&gt;&lt;div style=&quot;text-align: center&quot;&gt;&lt;b&gt;%c4Description%&lt;/b&gt;&lt;/div&gt;&lt;div style=&quot;text-align: center&quot;&gt;[%c4Technology%]&lt;/div&gt;&lt;/div&gt;" id="AzP6F-gZwt-fWo5-Fft6-23">
          <mxCell style="endArrow=blockThin;html=1;fontSize=10;fontColor=#404040;strokeWidth=1;endFill=1;strokeColor=#828282;elbow=vertical;metaEdit=1;endSize=14;startSize=14;jumpStyle=arc;jumpSize=16;rounded=0;edgeStyle=orthogonalEdgeStyle;entryX=0.25;entryY=1;entryDx=0;entryDy=0;entryPerimeter=0;exitX=0.75;exitY=0;exitDx=0;exitDy=0;exitPerimeter=0;" edge="1" parent="1" source="PGkPKVcrgzVjSJd_lX84-2" target="PGkPKVcrgzVjSJd_lX84-1">
            <mxGeometry x="-0.25" width="240" relative="1" as="geometry">
              <mxPoint x="570" y="600" as="sourcePoint" />
              <mxPoint x="510" y="500" as="targetPoint" />
              <Array as="points">
                <mxPoint x="421" y="410" />
                <mxPoint x="480" y="410" />
              </Array>
              <mxPoint as="offset" />
            </mxGeometry>
          </mxCell>
        </object>
        <object placeholders="1" c4Type="Relationship" c4Description="Manages Messages and Tasks" label="&lt;div style=&quot;text-align: left&quot;&gt;&lt;div style=&quot;text-align: center&quot;&gt;&lt;b&gt;%c4Description%&lt;/b&gt;&lt;/div&gt;" id="AzP6F-gZwt-fWo5-Fft6-25">
          <mxCell style="endArrow=blockThin;html=1;fontSize=10;fontColor=#404040;strokeWidth=1;endFill=1;strokeColor=#828282;elbow=vertical;metaEdit=1;endSize=14;startSize=14;jumpStyle=arc;jumpSize=16;rounded=0;edgeStyle=orthogonalEdgeStyle;exitX=0.5;exitY=0;exitDx=0;exitDy=0;exitPerimeter=0;entryX=0.75;entryY=1;entryDx=0;entryDy=0;entryPerimeter=0;" edge="1" parent="1" source="AzP6F-gZwt-fWo5-Fft6-17" target="PGkPKVcrgzVjSJd_lX84-2">
            <mxGeometry x="0.1342" y="1" width="240" relative="1" as="geometry">
              <mxPoint x="450" y="500" as="sourcePoint" />
              <mxPoint x="690" y="500" as="targetPoint" />
              <Array as="points">
                <mxPoint x="360" y="680" />
                <mxPoint x="421" y="680" />
              </Array>
              <mxPoint as="offset" />
            </mxGeometry>
          </mxCell>
        </object>
        <object placeholders="1" c4Type="Relationship" c4Description="Receives Messages and Tasks" label="&lt;div style=&quot;text-align: left&quot;&gt;&lt;div style=&quot;text-align: center&quot;&gt;&lt;b&gt;%c4Description%&lt;/b&gt;&lt;/div&gt;" id="AzP6F-gZwt-fWo5-Fft6-26">
          <mxCell style="endArrow=blockThin;html=1;fontSize=10;fontColor=#404040;strokeWidth=1;endFill=1;strokeColor=#828282;elbow=vertical;metaEdit=1;endSize=14;startSize=14;jumpStyle=arc;jumpSize=16;rounded=0;edgeStyle=orthogonalEdgeStyle;exitX=0.25;exitY=1;exitDx=0;exitDy=0;exitPerimeter=0;entryX=0.5;entryY=0;entryDx=0;entryDy=0;entryPerimeter=0;" edge="1" parent="1" source="PGkPKVcrgzVjSJd_lX84-3" target="AzP6F-gZwt-fWo5-Fft6-16">
            <mxGeometry x="-0.1304" y="10" width="240" relative="1" as="geometry">
              <mxPoint x="370" y="740" as="sourcePoint" />
              <mxPoint x="830" y="700" as="targetPoint" />
              <Array as="points">
                <mxPoint x="660" y="680" />
                <mxPoint x="720" y="680" />
              </Array>
              <mxPoint as="offset" />
            </mxGeometry>
          </mxCell>
        </object>
        <object placeholders="1" c4Type="Relationship" c4Description="Sends Message Updates" label="&lt;div style=&quot;text-align: left&quot;&gt;&lt;div style=&quot;text-align: center&quot;&gt;&lt;b&gt;%c4Description%&lt;/b&gt;&lt;/div&gt;" id="AzP6F-gZwt-fWo5-Fft6-28">
          <mxCell style="endArrow=blockThin;html=1;fontSize=10;fontColor=#404040;strokeWidth=1;endFill=1;strokeColor=#828282;elbow=vertical;metaEdit=1;endSize=14;startSize=14;jumpStyle=arc;jumpSize=16;rounded=0;edgeStyle=orthogonalEdgeStyle;exitX=1.004;exitY=0.567;exitDx=0;exitDy=0;exitPerimeter=0;entryX=0.5;entryY=0;entryDx=0;entryDy=0;entryPerimeter=0;dashed=1;dashPattern=8 8;" edge="1" parent="1" source="PGkPKVcrgzVjSJd_lX84-1" target="PGkPKVcrgzVjSJd_lX84-3">
            <mxGeometry x="-0.4408" y="41" width="240" relative="1" as="geometry">
              <mxPoint x="380" y="530" as="sourcePoint" />
              <mxPoint x="620" y="530" as="targetPoint" />
              <Array as="points">
                <mxPoint x="720" y="288" />
              </Array>
              <mxPoint x="-1" y="-8" as="offset" />
            </mxGeometry>
          </mxCell>
        </object>
        <mxCell id="AzP6F-gZwt-fWo5-Fft6-29" value="" style="image;aspect=fixed;html=1;points=[];align=center;fontSize=12;image=img/lib/azure2/app_services/Notification_Hubs.svg;" vertex="1" parent="1">
          <mxGeometry x="627.8" y="269.79" width="27" height="22.57" as="geometry" />
        </mxCell>
        <mxCell id="AzP6F-gZwt-fWo5-Fft6-30" value="" style="shape=image;verticalLabelPosition=bottom;labelBackgroundColor=default;verticalAlign=top;aspect=fixed;imageAspect=0;image=data:image/png,iVBORw0KGgoAAAANSUhEUgAAAQAAAAEACAMAAABrrFhUAAADAFBMVEUAAABVkv9eZHUAAEF+fn4WI32juOQ1NU0VJX5Ieu8eMmU+atWJiYkAAB8jOm5os/+Om9YnPn9Db9NNif8uTIk9aMh0irg2W7IoQn2Akr49Z8Ourq7FxMQlNWVVbqo1WaspR4RieKsAAFYlPnRTa6KZobIAAGJLVosBH2NhZYShoaERL2QAHXQvT54kO2W0tbnl5eUrSYwyQoszVqQtTZE5V5lMXpU8T39OaqwPMYAmQIQtV5w5TYkWBxtEX6BNZ6MwUZovT5cwVlsmQkaGk66stszQ0NCirMff39/X19d6iq8oR2dse53Bxc0eMlwhKHIhZJwyXm6dp8C3wNOUoL7s7OwZKk719fUhNHbk5eXCyNfS1+D///8iOGYoRID5+fvw8PDL0d7k5uz19fWpt9AkPXn////5+frY3Oe1wNghNmcjOm/h5e0lP3gbLlb8/P3////19/rv8vfq7fTl6fEuT5be4+4qQYsmQHrQ2OclV5QoPIIsS4ooRH5+kbra3+wnQXwqSofAyd6zvtfHz+IpRYSisM8rSIiTo8cuTpOGmL9nfa6cqsuQocUpRYOAk7yHmcAqR4Z3i7giO3ErRYpkeq4oRIErSot8j7opRIJvhbSHmcB1ibdddaorSYpofrArS4xvhLRVcKhqgLFke64rSYtsgbJlfK8sTJA+WpksTI9edqsrSIhVbaZedatiea0rSostS45ZcahTa6UrSYwrSYstTpNZcahTbKUsSo5KZKFSa6QoRIIsS45QaaNZcagsSo1PaKIrSYpacqlOaKMtS49LZaFNZ6IsTJBKZKAsS48tTZJNZqJIYp8sS49HYZ8tTJFFYJ4tTJFCXZxAW5tFYJ5CXZwtTJE9WZkrSpBDXp2hrs3////d4u1cdKrk6PFWbqYiQosnR46/yd4vTZL3+Pvn6vLR2Ofr7vXZ3uq1v9dnfK90iLZLZaB5jLi7xdyWpMebqcpugrM5VZentNHx8/j8/f6Pn8TDy9+JmsH09fk2U5bK0eNPaKOuudSCk71tPlXmAAAA1HRSTlMAAQEBAQEBAQEBAQEBAQEBAQEBAQEBAQEBAgICAgICAgICAgICAgICAgICAgICAwMDAwMDAwMDAwMDAwMDAwMEBAQEBAQEBAQFBQUFBQUGBgYGBgcHCAkJCQoKCwsMDA0OEBEREhMTFBQWFhcYGRoaGhocHR0fHx8fHyAiIiYnKCorLS4xMTU4OTk7PDxFRklKS01OT1BRV1pcX2BgYmJlamtvb3F1dnl7f4CDhYmLj4+TnJ6hqKmqrbKztLa8vb7BxsfNzc7S1NbZ4OLj5evt8vP8/FzL2JMAAAAJcEhZcwAACxMAAAsTAQCanBgAABsLSURBVHja5V0JYBRVmn6zs+fsjnupsO7MkFlnd3ZnZcZo3Jl1RoU9BnFXd9dZxqsQhLXBM51Dd8bV8UAOHRVQRw6ZGMYDBAW5BEQUMOGUkFRXV3cenYOkc5GEAEWKkE7Ivlevquvoquq6Ol2FfyOG7upO/199///+//3/ew+A3MvYsQUTxok/T31k7isVqzds+XjP/oM1tTRNx+ja2ppD+/d8vGXDmspX5j4yVbxw3ISCsWNB8OXrRQVXk58efm7Zex/uOVgbq48hScY0Ij5Re3DPh+8te+5h8p6rC4q+G2TtLy8qEv7/wEtvb66ukVSlRVGqr32upnrL2y89ILy5qOiiYGpfUCTc+sdf27CnVqFlLJvIF9Xu2bDsccEcJgbOGgoKv4T+vn/xB9W0pFXMlkhvoKs/WHw//sTCgiDd+z9Dfz9Rub3Gke4ZKNRsr3wKfeAfTBwbjHuPHf4Tb++i3SmvBoHe9fYT6GOvKiz0ufrCF/xZ5U6ifcwjETGo/Bn+DUV+Vn88ANe+uqXWU+0VGNR++CryBBN8yoJrMff/d/X+HGivwGD/ajQujCnyHwaX4680f3NtrrSXMajdPB+T7XJfqX8RMsxbXt0Zy636EgTJnUtuQQGSf+Kjwokoxq+oxl8vNgqCIaiuQDnDRJ/4Q+SXflqxP/c3X02D/RU/FX51/m//JeC6JdWjqb4EQXXF34M/zLc3HItY+Nqoqy9aAl39GroBeQ0Pkfpzt+dFfdHhbJ8vfIl8Gf8fg4c20HlSXzQEesND+XIFBVcBUHlwlDy/CQsOViIS5AEC5H3m7syz+iIEO+cKX2dU5SuF4N/W0DSdd/2JHaz5L1D0lVG+/fOrfXD70ySonj+qJEC/ajXtF/XFIXHN6CFQMAY8vSvmJ/3xl6nfNReMGRVfeDEAFTX+Up9AUFMhfLncxz53b076T3+BkZvvzn1UNB48Xe1H9QkE1U+DiTklwdjxYEmtX/XHCNQuAWNymBz8EIA1Mf/qL3y193I4GhSCqVv8rD6BYMvUXCFQBB7b43f9BUfwf7lBYCKYf8j/+mMEDs0HE3Jh/4trg6C/4AoXY3flcbkPLKODob8QGC/zeqboR6AyFhT9hcC4EngJwMTrwergqE8aTlaD8Z65wouvB+9ywdIf3a41YKJHudH1PwDvMtF4LHgIjPckM/gWuv9MJAKDiMBVXnDgGvAuG2FZNoAIrPYiHrgG/CaK9ccIJOsDhkCl+3jgBvDraIQAgBEIGgeWuY2KbwC/Eu8/G0groBe7myL5FvhlHcOygUUARcXz3XDgm+AXh9kIq0IgGTAEDj3m3A9cCv5nH6PSP4gcqJ76+w4Hw0v/htqh1T+ICGwHVxc5TIDWsRn6BxGBNc4c4T+AN6CO/kFEYIkTBL4JnlcNAMFFAA0FT9tH4Bvgvn1MhL1AEKi+e4zNwfBP/pbaaqh/ABHYbLet8NtgJWusfwARqLDXR/NtsMDIAQQSAZpGbqDQjgOYUcVE2AsJgdiu68ZZ58DXwfps+gcPgTXgKqv6/x5YFM2qf/CswEZaNHsfYwGAYCGAxsL/GG/NCP6OWm9J/8AhYNEIvjrpxYg1/YOGAP2UJSP4l9Bu1ioAgUIAjQRWAPg+9Y51/YOGQIWFaeJJcw6zdiRQVlBz72XZWohuojYykQsVATq2IZsRfHWKdQ8YRATouVkQ+EnoE8YuABiB+qBQYLv5zMD3qaWsbf2DxAE69pIpBe4q2cew7AWMAI4Hi/7UUP9/p1Y6IUCQ6oZ4gnCicQ7w6AHGGQCB4QAd23/LBKNlt/9NvemQAIFCoMLQD85ABGDZCxwBRIHLCy/yngDB8QPGFJhRam0agGVYRvrDWqyc1osP41fMH7Yu1n2rciAo0J0du5VaYfFOR9PCWLOCZFrMXjMRWxfrv1Upr+pSYEZ4txUCRFPnO9vbO8mjLw6zI5A8NtJOpCnaovlC9VxDe3bp4OqTwgedb7crDeSt2rR4jA4Bpi2ydP+jqdaELOdS0axWkDx2Trya79UAkKzn2hLZpT9Ott861pqwK22cnhHoTQ/ODm2z5AGiqT6eR7rgPzzfOZydAwgA/A50/WBvJgMG8UeZCp9olxgg/Gobgn5lJgOEQtHVWv3/NTSvziID+uSvzCf6NBTQQQAzgLyjTYcBgxb0aJcY0JfgbTJgkNPzvLWPZXiBe6h11oYAFQDopxNcNgRMAIhZBCDNACcAJHVsYLU2Hv7rkvIDzgBo0g4FGQhYZABvLDID9F5NmH1Cvx4DUDB0+yXXqgC4c5rFMVADAPrxjNYItAi4ZwBygoQBA7adIK/HACSLNb3kD4Z2WEyDNAAg2E9z0BQBawwY7DCWAXIbky2n9F41/YShVL1uNPihukZwc2hOnTMGoJ+7GPO8wAoD+ETrsfoWQ0lfrvMaGhvJGNNh+latG3xIVS+/Z9oqq3mwFgD0j1MZRqBCwAoDEAAtVsI5nddaBiQA6q1GgqSNWDEOfK8stNs+AEP9IgJtjXFogoBFBrQ4a8FUAmCvSDJOMRMWesFyGigBgLyfiASfGMoEQIGAZQaMIgDIBp5S2MBsaq3lRFgG4Hi3qBefERGrEMgtA2LOAKBjb8s2cHPpLMsWoACgIzUgeYP+ZhMO+JIBgg1IC8vusGEBCgC6uMY2iQJ9HDScI/IlAxAET6RX1s2etgra9gGJRANMnUobQUZELCPgTx+AxoFCMRyeXGqnHCQD0MSwTJdkBO29jBEH/MkAoYlanAkJPXOEYe0D0A4h181LFDiv4wcJAn4cBoVS8f2ATI4+SK1gnfiAdoj+cUYyAhQRGyDgVx8QE5fTTC63VRFXmABSj4k2SPFgg+FcsS99AALgA5IT31FSvNcZAMhuINeT9oOndI0AgeRXBlT/82XEBbxgpxqgYgBSL3VcQqCtW9cI2GjSlwxAweDjeGrwaw/aq4iqGYDub2+7ZAQdOtEQfgd30o8MQLIEA4BcwCYm4pgB6N8jaSM4qz8SpE76kgG4YeaHAEwvKalinDMAu4E+04gYvcOfDKBje/4cjAczwpbnQnQZgNx8c6dkBAOcPQDy6wNitQ+gaLiUWhplWBcMQM+cSxvBiI4R+JUBSF5CKXE5tZaJuGEA5sBQOiIezoyIfcsAnBJPAGWhrU4BYNIANA5KRnA8kwK+ZQCpEBWHD7hlgEJFPtGTgYBlBiRj+o/cMaAamUDo2SMM644BSOId0vRYQ1RrBFYZEKs3kNz5gJqHAQi9DFnWJQNYZVp4VEsBBQDNxgwYSHIGkkrmahSIxZ4DgFpprzFMnwHR1FHJD6KIGBoB0MgZVobaOo2kiTF1Dy4AwDtMAMvLQ8wYwLIMbJCMoIMxZEBjnLFfGmtjzQBIugLgPQCmfeQFA1DAfzptBCfVRqACQFM3VBZHhY4DnccgmzsGfIh8QJUnDMCtM5IRDKojYjUA6qqZFQYM5pABewB48nOG9YABqrRQHRGrAVDXDd0D4I4BB+8FC2xlAsYMQEnfCTkiVs4MqADQVM2s9AfkjgEoG3gELGRZTxigKpuqWoc0DFAhYKk/AOaKAUjmgtdhxBsGIL2G02nhcc4EAEXVTAagc8BI+uL1uWIAHXsFvMNGPGKAKi3skY0gEwAZATkQ6jvWcsxA6nMWCdLJSvA+4xUDcEA4IAUDTXJErPUByqqZIhJssdXs6RUDVoNNjGcMwHMjg5mtQzoMSCOQ5/kAPCu2zUMGoBfPpgsl6TliXQBEBPI7I4S3YQafesgArFY6LexiWGgCAEEg3wxIfgw+85IBeG6kTRsR6/kACYG8M2APOOApAxRpIT8o3m8DBghVs5Z8+4D94DDDesgAnBd2aVqHDAFACOSZAbHYIXDEs0hQTgsTqtYhYwDQxfllQCxWA+pYjxkgl8wT/UJEbOQDSAaVZwbUgojHDMAl8ybJCITWIRMGoOg5zwyg3QBgdIWiZH6Cg6YA5J0BtPcMwAhIJfNEUy8Dfc2AGGA9ZwAaCOS08Hwq6msfEMsFA1gol8xx69AXzQeo08IuRYLgQx9Q62YYNA6hovHm/nQzPced8y8Dat0EQqZXnZVbh5Ij/vUBNW5CYdN3SiVz9MWSPVKJw4QBAy2xfDDgoJtkyHwpuZwWjjQaAiAzYIjLSza43ywdhjAKoVMGRNOd1In27sHsDBiKO9y12206/KnJ3rFciotD6IgBLFSkhX1Niaw+YCjubAeGpNsJEeMpMW74xNmRZo6BjhigKJkn0oVjUwbAKOKA/YlRt1NihpOi8ZM4nBs8D9UIWGWAKi204AMGOCbOcPUtBo9c+YANRtPikDsjVKsSiSGWgU4YQDqpeXMAFAzoHUbSG9cXLlcMWG1QGIHciQTP67V8WGeAIi1MZPMB6Pf0Yxns15POwaGWHDGgwqA0Jne+8Xy/ajGIdQbgnOC8CgFjBmSTDuMwyRUA9a/oF0fRF+uXf7tqcbANBpCSOW/FB2TbB8EYgKTb4qhueVwu8WA5oS52W2eAopPaFQMwALmJBGsf0W+QUN+6bgMALMSNMNWqQMDMBzgFwF2HyMHbDVpkYHpSR7sWRl4zZIEBmEr9EgI8r88A3gIAQyY+QFw9zjtskdFvkhK6X8XNUk5w2mFQjHAZS6nDOYUiOj6gzaITNGOAeI2zJimDNjnI9RA3yJ/lNIHQcTJWDXZZyyPjrdLYNtiescwcmVp/dukcNEmWW/rE7zPgrE3OqFESco3Hm/rb+06ntPmQELFgsZY+MtHhtOgsMB7Wl17LgVCMs3CNSaOkYassyoWiw1EucyEUClnRH/SwBgBkxMvRQw+fuO4DRcXWQuFYTLrQySj4HMDN0obZMMuwUaj3PMr1ILTcYwzJw+AN+HmdB1RlRuYJYfZLTJql7bbLj5rkfn9C0i5fRm31JwC5R4AsmLC7ZOYCQoAsmSkNLYUs+8VEQFg0VRKaU8d8QREQls0VlxRX+dUGcrtrNwqEvwTGg7DNpbMXDgfEpbPhMmol9C8AOUSAJounwyWhFyIM+4VEQFg+Hy62t4HCBYMACoP+CW+gEEY2sNHXAOTIE+ItNPAeItMRACtYXwOQGw5Im6hMR07gmSPunQDUrSQqX7T2rO6VUUa9o54nCNTcD/A285PD4VIn52pkzHvgRZ5xaJRZI8nYe5TB78goyCHJSJk5LiVNCdUfO3asxRMCiBspXTkrXD5tlVsbgExjD5JGXQRgvBu/qF1ZzwyjJ7u1C49O9/Sc1mxowPTiC0X9U93d3Y2eACBtpTULD4R1bg2AOy5MFOvuIcKQIsNp7dza+YyZcsj0dqLnhhlNlRVd2CX0DyRb8CRigxc+Mb2Z2vRwsZ3t9IwB4IUdJHRMXegU4LUA4F46XrvMVFh82K/erjoqlJk72HgagK56DwiQ3k7vxmIUDa91aQNREQC9nXSYaDufCQCpmfCJBqitRyAAtAzgE4kOBp9fIALgTSosbago2ECE9YABmbeZVawlU282JlQf8Vt6FO+AegyQAMDrC7xjALIAaUvN6Xgc2O2OAoIPaEOmrrOzItOVSHTyGh8AuUZcekfaKDfd0GdAXDABhqyw8IYBdGynvKnq5GI8DjDuAejsENdHqwlwAj07xGfUWPHKkpGGRGJQMToQAAYNGIDB9IgB6m11sQ24nBXBPiDRf4Ysl4NQQ/VEw3mNdQg99YlO5niiLXFW4TjNfADBzSMfoNpYeTrOB3a4ogAxgZ5OvGyYgSzUdAodPSoAEFU3YCTOx3rUjhMajQISAJBp9oIBmq210ThQNm0FjLh2go1nyIZiKqqjF/hmLQOiwv5bCJIm5QpD2QdAqO22EgGIN3rBAFqzufqscHFxuavygAhAMy+Ma8rFgbhfciDWqgaA9B80IByOIhuQF5lKPoCJQn0TEAGod6v//tsvUZ44NiWMQoF1bsYBIQ7gu4WdhpX9FKRTrCc5oAaAdNCfSkXjWLfOXkbrA1QMiGcA4JoAq9Vnb04pRm5wnhs3KDCAP53s0Wy0LSyd6GC4Vo0PwE2UQhQsrDQdkaCRRwFTBjS4doHaIzZmYje4zQUFCADdcaZDZdPkTo9wcbUJQGHHFQwU6SofUgOgMwqofUBD3CUBMg5ZQTZQOmuRax/QHedGhN0ToukouAmvpIecGgCy4cq5FCQdJIp9BbKMAlAEgI27AyDzmJ1ZYWQELjIi0QfEWTy8t0m7yJB4H6U7agCgYBj9QgCEsWmT92PNEgdIADAwnnSVB2UctIQogEZCF4ftEQaI64PSrZXYIpA6UbUPINkBCZpJQNAELUaCEgBuZslovaO2riwOF5eU7XNMAckHRFHuz+N9tsU2G7JuTGMCpAuTJEFiP5qYEWX1AVEJAOcI0LHq28dlnropuME3GbcMgGTcI4uGhaVTQnKgAgDdRaRQUy+eE4SCP2iTcqjskWAaAMcIGBy392NMAecnbko+AJLIp0vO4lqRamoAcB6Eop8ky2BhU92Kzaey5QIKABwigIKgsboHLgoJgeMTF9MMEDeZxa11ZM9lbPlQ4wNw/Hua7ZWkK70jr3Uf4BgBw/MWkRt0QQHJB0BxjB/gIA53xUxHxYAocntScziRtvRZPelQWGMCOFbIBMAJAiaHrs7CFHB87K40CkhTPcgfkowf31kVAEL3LK8+qwn9J8GDhlG+WcOA03hBhbgJlRIABwiYHLuLKVBa4nAgSPsAcoeR7+fY3k5enCZWAqDuw5abYcn5BDDeJQRUUDOlIu1NpQHANgJoCPjuxLEGh84KFFjq1gfgf+B5nubk2fRGKkofQCKFrrOnTsoP/N7OXhIXDWTsTozfIcVKWgDsImB69DaigOMikewDpFWjJ5NdQhCkZQBZTDbSkpIlGe2UMiI8irZp9uYl7z6hywCbCGQ5fH0mzghejERcMoBUNzrwGChm+goAiEF3DrPyya3RXu68lEQS+1Hkx0JG2Z8eJzMBsIUATc81O3sdxQJOa+UKH0AG+kRbh5zkKHIBEvcc5zK9HLkYa8snTiWjmulTcY9GHQBsIICbYszOnsexQEnpHCelYrUPIH5OPn1I9gHCWpx05KuaHiAZBFlm1HY6hWvNQvk4dbqNT8+y6AFgvX+Arrn3MlMAsBcoo95xMBQqfYDEB3kiXDYBlAehF9p1dx4Wzq4UIkk+MTjCpeJxJh5PcSf6BfuQp9gyALDKARwDTQAgCwWKy5ykxYo4QIrdFNO9MgAkDzqTcVhv86A0lya4UFwzOdfYPNzcODKEqZQ+uEAfAGsI4GJIobn+4I9m4YHgRfuTY+ie8zIDkMZDfJs8mqHwmG/DoQ65v8ozKiXKtCba+NYUSZDPkNgo0d/ZT8KkzvQcE1nJ0qCzkV/2c89p+qmsAODZQWQE620bAc4AEon0ntJ4ySRK8tMBGzdAyuOkJK6IY1iYLhOkV9RA7mynGB+Sv4Ya5XnzeKP+erXsHKBja8yGQMVQWFz+oO22McgdbWhoUEZwrQ3yGXxR7gx+lYsy0QH0Q/ooEmVFaAi9IG5GC1PNRxukWLmztSeu3IWwuauhYYCx30eEYsD/HG8BAEyB0tAi+8EAyW0VLTMMA+U1EtKLULgMatQXr09PhkfjKdh44uypUydHTg9znLrYqPk9VhGg6fnZDUD0g9gIXDcNQTfXwygb53CQyHEMjFruJTPxA7gUYEl/0QhK8t5AjUIAJNAOjiYzpXRs13XjCqwBgOPB0mkL6vzdOmivn5CO1T5tlQBSOLSSuYAQwCGQZf2FvDhc7tulRA6sAJeCJl5kHYDJCICSsp/vu1A4gEbAu8fZIIA0Fi6oY9gLAwHkAIqALZkZdjNB6DME8DSgTf3BX84U3MB65gJAwGIIrJEbi3E0ENoRfATwVkHj7QMA7sCOsDSYjlCJAHKAU3+nADiQmcIU6bzDwUaAjh16DC8Nc4wAtTCQQ4GEAIoA54NCZ/qD78wShoKlQWSAhABNL3bgABUttHgo8PWqQlME6vEOEc71J0MBQmAVG1AE6PpKV/oDcFsYD4bU+kggEYjEV2ebBLY0O1Lssocyb/oz74JrLgZfWASw/tcXAeAJAmXBQyDCIv0LAPAIgXJqLQxURBSB74IfXAOAhwisgkyA6A9/A64HXglGAMcDkaCYQYSJ/hrccCnwGoGldcGwgghb9ysP778CgYWByIwizOFfGvVBuUVgXpX/EYgwVb/w+P6nESgL/XyH3/1AhN1xH7gBeC9TSnB2HA6tY/1MggjDrqPAN0AuRMiMUEj0ho9dYYSpewOAvwC5kcmziCN43rdbrkSYvc+DKyaBXIkwVYwdwVZfmgGi/9b7wLUglyIgUBqm3vShGSD6vwlyZP7qkhF2BM/vZvwFQYRhqp7PnflrHUFZKLwu6icEUPC7LgSuAKMgX5uJSVBaQi2sYvwSE6Dbv28hANeA0RFiBuWh0nURf5AAfY11ZeCvfheMllwpmEFpMbXoEx8MB8j5f/Ii9VtXgNGU6cQXhkJvHc4zBBGWObwqlOPBTy8sJANiCTVnYySPriCC2L9xDjXpy2D0RSIBtWgHzBMESH34ySKK+keQF7lSGA5KkB0sr0J2EMmD+uze5SHqJpA3uY04w1IqvHLvaEMgqL8yTN35ZZBH+W3BDvB4UPbWgdGEALk+9sBbZdSUH4E8y40ziSsIU4++hVgwOr4Aq7/3rUepKTcBH8hkYTzAEBQv3w2ZnNMAcZ+Bu5cXU6FbgU+EuAIMQWjhtjompzTA6tdtWxiiZk4CPpIpIgQlIWre2gN4VIzkSnv2wLp5odCMW4HP5DbiC0pRXFC+HNPAc1MQtK/btrycCs2eBHwoxB2iuCBMUfNW7UaOykMMBO0ju1fNC1Hhe34CfCpXSpZQGqJCL6wVMYi4V55ov3YB+tgH77kV+Fluk2ggYLBqxxGWcQWCoDzDHvlk1QvoA8vuuhP4XhANBG9Qgj1i6JkVG6swEQRV7OuO3xnZu3HFM+ijSmff9T0QDLlxJvGIJeWIB1R4wYpNVXXCWimsVHYcyEXC0qq6qk0rFyCfEi6dPeNmECSZPH2WaAuYCFR4ztK1W/cegeLCsogoGWoLz5FlZUcObF27dA5SPlRS/uCMH4PgyWRiC9gYyosRCFT42ZdXrv+o6vM6fB6tdo2d9Axk6z6v+mj9ypefDaP3hIqR8ncEUXsRg8nThJoqAqG0vExAgQo9uWDh6++8v2nbp58dOHykDt/ySKTuyOEDn326bdP777y+cMGTYXxZqLisvHTGzMnfyfm3/H+W1sgP1Da/mgAAAABJRU5ErkJggg==;" vertex="1" parent="1">
          <mxGeometry x="608.8" y="507.66" width="46" height="46" as="geometry" />
        </mxCell>
      </root>
    </mxGraphModel>
  </diagram>
</mxfile>
